# xmcd CD database file
#
# Track frame offsets:
#	150
#	22225
#	43363
#	61405
#	76039
#	88437
#	109508
#	127226
#	137529
#	148445
#	159602
#	175862
#	192452
#	204814
#	217912
#	232330
#
# Disc length: 3288 seconds
#
# Revision: 2
# Processed by: cddbd v1.5.2PL0 Copyright (c) Steve Scherf et al.
# Submitted via: CDex 1.77
#
DISCID=f50cd610
DTITLE=Various Artist - Macca's Top 100 [Disc 1]
DYEAR=2012
DGENRE=Country
TTITLE0=Digger Revell - Sunday With Macca
TTITLE1=Ian McNamara - Gumboots (Flood Relief)
TTITLE2=GANGgajang - Waiting In The Wind
TTITLE3=Sounds Great - I Still Call Australia Home
TTITLE4=K'crasher - Western Highway
TTITLE5=The Basics - Home Again
TTITLE6=The Waifs - Bridal Train
TTITLE7=Don Walker - Get Along
TTITLE8=Col Joye - Christmas Island
TTITLE9=Tallowood Bush Band - Number 97 (To The Snack Bar)
TTITLE10=Kathie Renner - Steamers
TTITLE11=Grant Luhrs - Full Moon Tonight
TTITLE12=Enda Kenny - Earl Grey
TTITLE13=John Hartford and Ian McNamara - Gumtree Canoe
TTITLE14=Michael Bausch - Quiet In Quinalow
TTITLE15=Phil Hungerford featuring The EDOCS - Technology
EXTD=YEAR: 2012
EXTT0=
EXTT1=
EXTT2=
EXTT3=
EXTT4=
EXTT5=
EXTT6=
EXTT7=
EXTT8=
EXTT9=
EXTT10=
EXTT11=
EXTT12=
EXTT13=
EXTT14=
EXTT15=
PLAYORDER=
